<?xml version="1.0" standalone="no"?>
<!DOCTYPE svg PUBLIC "-//W3C//DTD SVG 20010904//EN"
 "http://www.w3.org/TR/2001/REC-SVG-20010904/DTD/svg10.dtd">
<svg version="1.0" xmlns="http://www.w3.org/2000/svg"
 width="90" height="30" viewBox="0 0 248.000000 256.000000"
 preserveAspectRatio="xMidYMid meet">

<g transform="translate(0.000000,256.000000) scale(0.100000,-0.100000)"
fill="#000000" stroke="none">
<path d="M0 1280 l0 -1280 1240 0 1240 0 0 1280 0 1280 -1240 0 -1240 0 0
-1280z m1722 478 c53 -16 88 -53 87 -92 -1 -32 -3 -29 -13 16 -4 17 -18 34
-38 44 -48 25 -208 15 -318 -21 -199 -63 -423 -196 -556 -329 -71 -71 -146
-176 -125 -176 11 0 -4 -132 -18 -157 -12 -23 -53 -31 -78 -15 -34 21 -43 121
-19 206 8 28 22 119 30 201 23 218 48 296 102 315 41 16 80 -14 129 -99 26
-45 48 -81 50 -81 1 0 49 22 106 49 125 59 255 106 364 131 92 21 240 25 297
8z m-110 -125 c70 -66 111 -204 130 -434 24 -301 -25 -628 -100 -667 -19 -11
-56 0 -68 20 -6 11 -5 11 9 0 27 -22 60 -10 79 28 89 181 5 850 -120 963 -31
28 -56 14 -122 -69 -75 -95 -100 -136 -160 -275 -57 -129 -72 -149 -113 -149
-40 0 -71 36 -137 161 -89 169 -88 161 -48 208 18 23 36 41 39 41 3 0 35 -54
70 -120 35 -66 66 -120 69 -120 3 0 15 27 28 59 48 123 170 300 244 352 74 53
145 54 200 2z"/>
<path d="M807 1564 c-3 -11 -9 -41 -13 -68 l-7 -49 31 22 c43 30 43 31 17 75
-19 31 -24 35 -28 20z"/>
</g>
</svg>
